<?xml version="1.0" standalone="no"?>
<!DOCTYPE svg PUBLIC "-//W3C//DTD SVG 20010904//EN"
 "http://www.w3.org/TR/2001/REC-SVG-20010904/DTD/svg10.dtd">
<svg version="1.0" xmlns="http://www.w3.org/2000/svg"
 width="500.000000pt" height="500.000000pt" viewBox="0 0 500.000000 500.000000"
 preserveAspectRatio="xMidYMid meet">
<metadata>
Created by potrace 1.14, written by Peter Selinger 2001-2017
</metadata>
<g transform="translate(0.000000,500.000000) scale(0.100000,-0.100000)"
fill="#000000" stroke="none">
<path d="M2810 3240 c0 -5 -8 -6 -17 -3 -12 5 -15 2 -10 -10 4 -11 2 -14 -9
-10 -8 3 -14 -1 -14 -10 0 -9 -3 -24 -7 -34 -6 -16 -5 -16 10 -4 9 7 17 11 17
8 0 -16 -38 -84 -59 -106 -13 -15 -21 -20 -17 -13 5 8 -1 12 -19 12 -23 0 -25
3 -19 22 4 12 -13 -2 -37 -32 -47 -57 -74 -78 -85 -67 -4 3 -13 40 -20 82 -16
95 -39 143 -71 151 -60 16 -99 -38 -151 -211 -17 -55 -34 -115 -37 -132 -7
-35 -25 -42 -45 -18 -7 8 -49 37 -94 64 -183 110 -244 129 -290 90 -43 -37
-39 -92 13 -177 22 -38 41 -73 41 -79 0 -18 -22 -20 -106 -10 -73 9 -84 8
-122 -12 -48 -25 -68 -57 -58 -96 11 -43 90 -120 144 -140 51 -19 93 -43 130
-75 l23 -19 -69 -98 c-84 -119 -122 -189 -122 -226 0 -102 130 -130 245 -53
45 30 59 35 71 25 11 -9 16 -7 23 12 4 13 7 29 4 35 -7 18 20 32 45 23 20 -7
22 -13 17 -53 -3 -27 -1 -47 5 -51 6 -4 11 -1 9 6 -4 31 2 44 11 24 7 -17 9
-16 9 9 1 28 2 28 19 13 10 -10 22 -14 26 -10 4 4 4 -1 0 -11 -4 -11 -2 -21 7
-27 11 -7 11 -9 1 -9 -8 0 -11 -7 -8 -17 6 -21 -13 -50 -34 -53 -29 -4 -40 0
-40 17 0 13 -4 11 -20 -7 -11 -13 -20 -29 -20 -36 0 -7 -6 -15 -12 -17 -8 -4
-4 -8 10 -13 25 -7 26 -35 2 -41 -13 -4 -13 -3 0 6 12 9 11 11 -9 11 -20 0
-21 -2 -11 -15 19 -23 86 -10 132 27 24 18 37 36 34 45 -3 8 -2 11 4 8 11 -7
42 49 33 59 -4 3 -1 6 5 6 6 0 9 7 5 17 -4 9 -2 14 3 10 11 -6 46 46 42 62 -2
5 5 16 15 23 10 7 20 22 22 33 2 11 4 22 5 25 1 3 6 -6 11 -20 6 -14 15 -81
19 -151 11 -154 24 -211 60 -249 55 -59 123 -33 175 68 48 94 59 106 82 93 11
-5 41 -44 68 -86 68 -106 109 -114 147 -28 36 81 16 332 -37 456 -6 15 -1 17
41 18 92 1 136 12 145 36 5 13 4 25 -1 28 -6 4 -10 17 -10 30 0 18 4 23 15 19
11 -5 15 1 15 25 0 17 -5 31 -11 31 -6 0 -9 -7 -5 -15 3 -8 1 -15 -3 -15 -12
0 -21 26 -20 53 1 20 2 20 9 -3 4 -14 8 -20 9 -13 1 7 8 10 16 7 8 -4 15 -1
15 5 0 6 -5 11 -11 11 -6 0 -9 10 -7 23 4 26 48 38 48 13 0 -9 -5 -16 -11 -16
-6 0 -4 -7 5 -15 8 -9 13 -22 10 -30 -4 -8 -1 -15 5 -15 6 0 11 5 11 10 0 6 5
10 11 10 8 0 10 -14 6 -40 -3 -22 -1 -40 4 -40 5 0 9 9 9 20 0 15 7 20 24 20
20 0 24 -4 21 -21 -4 -17 -2 -19 10 -9 12 10 15 9 15 -4 0 -18 2 -19 24 -10
24 9 21 75 -5 108 -33 42 -71 56 -148 56 -107 0 -112 7 -42 51 91 57 118 133
66 184 -31 31 -55 31 -152 -1 -43 -14 -104 -28 -135 -31 l-58 -6 0 44 c0 24
16 96 35 159 37 119 52 211 42 252 -10 40 -67 89 -67 58z m13 -49 c-9 -11 -20
-18 -25 -15 -12 8 11 34 28 34 11 0 10 -4 -3 -19z m-43 -113 c0 -5 -7 -8 -15
-8 -17 0 -18 2 -9 25 5 13 8 14 15 3 5 -7 9 -16 9 -20z m-1010 -352 c0 -3 -4
-8 -10 -11 -5 -3 -10 -1 -10 4 0 6 5 11 10 11 6 0 10 -2 10 -4z m427 -268 c-3
-8 -6 -5 -6 6 -1 11 2 17 5 13 3 -3 4 -12 1 -19z m-5 -93 c-2 -14 -6 -25 -8
-25 -2 0 -4 11 -4 25 0 14 4 25 9 25 4 0 6 -11 3 -25z m-11 -81 l-10 -39 1 35
c2 37 7 54 14 47 2 -2 0 -22 -5 -43z m-4 -76 c-2 -17 -8 -33 -14 -35 -9 -3 -9
5 -1 31 14 45 20 46 15 4z m-7 -75 c0 -21 -3 -24 -9 -14 -5 8 -7 20 -4 28 8
21 13 15 13 -14z m80 -59 c0 -16 -16 -19 -25 -4 -8 13 4 32 16 25 5 -4 9 -13
9 -21z m-10 -66 c0 -5 -4 -8 -10 -8 -5 0 -10 10 -10 23 0 18 2 19 10 7 5 -8
10 -18 10 -22z m577 -10 c-3 -8 -6 -5 -6 6 -1 11 2 17 5 13 3 -3 4 -12 1 -19z
m-577 -19 c0 -6 -7 -9 -15 -5 -8 3 -19 -2 -24 -12 -6 -9 -11 -12 -11 -6 0 14
21 34 37 34 7 0 13 -5 13 -11z"/>
<path d="M2295 3229 c-4 -6 -5 -12 -2 -15 2 -3 7 2 10 11 7 17 1 20 -8 4z"/>
<path d="M2735 3200 c-3 -5 -1 -10 4 -10 6 0 11 5 11 10 0 6 -2 10 -4 10 -3 0
-8 -4 -11 -10z"/>
<path d="M2695 3140 c3 -5 8 -10 11 -10 2 0 4 5 4 10 0 6 -5 10 -11 10 -5 0
-7 -4 -4 -10z"/>
<path d="M2720 3120 c0 -5 5 -10 10 -10 6 0 10 5 10 10 0 6 -4 10 -10 10 -5 0
-10 -4 -10 -10z"/>
<path d="M2697 3113 c-4 -3 -7 -11 -7 -17 0 -6 5 -5 12 2 6 6 9 14 7 17 -3 3
-9 2 -12 -2z"/>
<path d="M3204 2169 c49 -81 44 -76 56 -59 16 24 12 36 -22 62 -57 42 -62 42
-34 -3z"/>
<path d="M3687 2098 c-74 -154 -177 -390 -239 -553 -88 -233 -99 -265 -105
-305 -2 -19 -11 -49 -19 -67 -22 -48 -100 -325 -149 -528 -65 -269 -67 -282
-60 -304 6 -21 38 -36 54 -27 5 4 39 129 76 279 37 149 92 351 124 447 l57
175 139 6 c77 3 212 10 300 14 185 9 308 1 331 -22 18 -19 17 -29 -26 -173
-17 -58 -54 -188 -81 -290 -28 -102 -60 -212 -71 -244 l-21 -60 27 -23 c15
-13 33 -23 39 -23 8 0 22 44 36 113 23 107 81 312 116 407 16 43 117 377 155
508 10 35 31 91 47 125 16 34 42 101 57 149 16 48 51 133 77 189 27 56 49 112
49 124 0 13 -11 33 -26 44 -55 43 -65 21 -215 -443 -80 -246 -97 -289 -116
-297 -31 -12 -363 -29 -560 -29 -135 0 -163 2 -163 14 0 9 -12 16 -29 18 l-30
3 29 70 c16 39 56 146 90 239 36 100 92 228 135 312 41 77 75 148 75 156 0 21
-38 68 -55 68 -7 0 -29 -33 -48 -72z"/>
<path d="M2077 2096 c-4 -9 0 -13 11 -12 9 2 18 8 20 14 5 17 -25 15 -31 -2z"/>
<path d="M2297 1894 c-72 -143 -72 -145 -27 -181 17 -14 50 -17 50 -5 0 4 11
77 24 162 13 85 23 156 22 157 -1 1 -32 -59 -69 -133z"/>
<path d="M1998 2013 c6 -2 18 -2 25 0 6 3 1 5 -13 5 -14 0 -19 -2 -12 -5z"/>
<path d="M1996 1927 c3 -10 9 -15 12 -12 3 3 0 11 -7 18 -10 9 -11 8 -5 -6z"/>
<path d="M2025 1920 c3 -5 10 -10 16 -10 5 0 9 5 9 10 0 6 -7 10 -16 10 -8 0
-12 -4 -9 -10z"/>
<path d="M2017 1891 c-17 -6 -17 -8 2 -25 21 -19 21 -19 21 7 0 15 -1 27 -2
26 -2 0 -11 -4 -21 -8z"/>
</g>
</svg>
